# xmcd CD database file
#
# Track frame offsets:
#	180
#	22803
#	36625
#	49804
#	61264
#	70841
#	87417
#	106557
#	127478
#	145968
#
# Disc length: 2373 seconds
#
# Revision: 0
# Processed by: cddbd v1.4PL0 Copyright (c) Steve Scherf et al.
# Submitted via: CDex 1.50beta10
#
DISCID=8e09430a
DTITLE=Showbus - Showbus
DYEAR=1900
DGENRE=Country
TTITLE0=Past the point of rescue
TTITLE1=Something in the night
TTITLE2=Tequila sunrise
TTITLE3=We've got everything to loose
TTITLE4=Doolin' dalton
TTITLE5=Veil of tears
TTITLE6=I think I love you too much
TTITLE7=Take it easy
TTITLE8=Go down easy
TTITLE9=Sultan of swing
EXTD=
EXTT0=
EXTT1=
EXTT2=
EXTT3=
EXTT4=
EXTT5=
EXTT6=
EXTT7=
EXTT8=
EXTT9=
PLAYORDER=
